<?xml version="1.0" encoding="UTF-8" standalone="no"?>
<!-- Created with enve https://maurycyliebner.github.io -->

<svg xmlns="http://www.w3.org/2000/svg" viewBox="0 0 377 377" xmlns:xlink="http://www.w3.org/1999/xlink">
 <rect width="377" fill="#ffffff" height="377"/>
 <g transform="translate(72.1477 92.5683)">
  <g transform="translate(10.1522 -3.68404)">
   <g transform="rotate(0)">
    <g transform="scale(1 1)">
     <g transform="skewX(0) skewY(0)">
      <g opacity="1" transform="translate(-72.1477 -92.5683)">
       <g>
        <g transform="translate(0 0)">
         <g transform="translate(141.948 92.3789)">
          <g transform="rotate(0)">
           <g transform="scale(1 1)">
            <g transform="skewX(0) skewY(0)">
             <g opacity="1" transform="translate(0 0)">
              <g stroke-width="0.9375" font-family="Mallanna" font-size="15" fill="#000000" stroke="#000000" text-anchor="start">
               <text word-spacing="0em" letter-spacing="0em">
                <tspan x="0"></tspan>
               </text>
              </g>
             </g>
            </g>
           </g>
          </g>
         </g>
        </g>
        <g transform="translate(69.5401 92.5683)">
         <g transform="translate(0 0)">
          <g transform="rotate(0)">
           <g transform="scale(1 1)">
            <g transform="skewX(0) skewY(0)">
             <g opacity="1" transform="translate(-69.5401 -92.5683)">
              <path stroke-width="0.9375" fill="#000000" d="M56.8677 69.1631Q56.8677 61.9217 52.4711 57.7838Q48.0746 53.6459 41.8677 53.6459Q34.6263 53.6459 30.4884 58.5596Q26.6091 63.2148 26.6091 67.87Q26.6091 74.5941 30.4884 78.9907Q34.6263 83.1286 41.6091 83.1286Q48.0746 83.1286 52.4711 79.5079Q56.8677 75.8872 56.8677 69.1631L56.8677 69.1631ZM136.264 84.6803Q136.264 112.611 115.316 128.904Q96.4366 143.129 69.5401 143.129Q39.0229 143.129 20.9194 127.611Q2.81595 111.836 2.81595 89.3355Q2.81595 67.87 14.1953 54.939Q25.8332 42.0079 42.6435 42.0079Q53.5056 42.0079 60.4884 48.9907Q67.7297 55.7148 67.7297 67.87Q67.7297 80.2838 60.2297 87.2665Q52.7297 93.9907 41.8677 93.9907Q31.5229 93.9907 24.0228 87.2665Q16.7815 80.5424 16.0056 72.5252Q15.2297 74.0769 14.4539 78.4734Q13.678 82.87 13.678 86.2321Q13.678 103.818 27.3849 117.008Q43.4194 132.008 68.5056 132.008Q95.1435 132.008 110.144 119.336Q125.402 106.663 125.402 83.1286Q125.402 70.7148 119.454 62.439Q113.764 53.9045 104.713 53.9045Q97.4711 53.9045 93.0746 58.301Q88.678 62.6976 88.678 70.7148Q88.678 84.939 102.385 94.2493Q109.368 98.9045 109.368 103.301Q109.368 111.06 101.092 111.06L41.3504 111.06Q34.8849 111.06 34.8849 106.922L34.8849 102.267Q35.6608 100.198 40.8332 100.198L90.747 100.198Q86.3504 98.1286 81.4366 89.3355Q76.5229 80.5424 76.5229 70.7148Q76.5229 58.5597 84.0229 50.5424Q91.7815 42.2666 103.678 42.2666Q116.609 42.2666 126.437 53.9045Q136.264 65.2838 136.264 84.6804L136.264 84.6803Z" stroke="#000000"/>
             </g>
            </g>
           </g>
          </g>
         </g>
        </g>
        <g transform="translate(69.5401 92.5683)">
         <g transform="translate(2.84217e-14 0)">
          <g transform="rotate(0)">
           <g transform="scale(1 1)">
            <g transform="skewX(0) skewY(0)">
             <g opacity="1" transform="translate(-69.5401 -92.5683)">
              <path stroke-width="0.9375" fill="#ffffff" d="M56.8677 69.1631C56.8677 64.3355 55.4022 60.5424 52.4711 57.7838C49.5401 55.0251 46.0056 53.6459 41.8677 53.6459C37.0401 53.6459 33.247 55.2838 30.4884 58.5596C27.9021 61.6631 26.6091 64.7665 26.6091 67.87C26.6091 72.3528 27.9021 76.0596 30.4884 78.9907C33.247 81.7493 36.9539 83.1286 41.6091 83.1286C45.9194 83.1286 49.5401 81.9217 52.4711 79.5079C55.4022 77.0941 56.8677 73.6459 56.8677 69.1631C56.8677 69.1631 56.8677 69.1631 56.8677 69.1631ZM136.264 84.6803C136.264 103.301 129.282 118.042 115.316 128.904C102.73 138.387 87.4712 143.129 69.5401 143.129C49.1952 143.129 32.9884 137.956 20.9194 127.611C8.85037 117.094 2.81595 104.336 2.81595 89.3355C2.81595 75.0251 6.60901 63.5597 14.1953 54.939C21.9539 46.3182 31.4366 42.0079 42.6435 42.0079C49.8849 42.0079 55.8332 44.3355 60.4884 48.9907C65.316 53.4735 67.7297 59.7665 67.7297 67.87C67.7297 76.1459 65.2298 82.6114 60.2297 87.2665C55.2297 91.7493 49.1091 93.9907 41.8677 93.9907C34.9711 93.9907 29.0229 91.7493 24.0228 87.2665C19.1952 82.7838 16.5229 77.87 16.0056 72.5252C15.4884 73.5597 14.9711 75.5424 14.4539 78.4734C13.9366 81.4045 13.678 83.9907 13.678 86.2321C13.678 97.9563 18.2469 108.215 27.3849 117.008C38.0746 127.008 51.7814 132.008 68.5056 132.008C86.2643 132.008 100.143 127.784 110.144 119.336C120.316 110.887 125.402 98.8184 125.402 83.1286C125.402 74.8527 123.419 67.9562 119.454 62.439C115.661 56.7493 110.747 53.9045 104.713 53.9045C99.8849 53.9045 96.0056 55.37 93.0746 58.301C90.1435 61.2321 88.678 65.37 88.678 70.7148C88.678 80.1976 93.2469 88.0424 102.385 94.2493C107.04 97.3528 109.368 100.37 109.368 103.301C109.368 108.473 106.609 111.06 101.092 111.06C101.092 111.06 41.3504 111.06 41.3504 111.06C37.0401 111.06 34.8849 109.68 34.8849 106.922C34.8849 106.922 34.8849 102.267 34.8849 102.267C35.4022 100.887 37.3849 100.198 40.8332 100.198C40.8332 100.198 90.747 100.198 90.747 100.198C87.8159 98.8183 84.7125 95.1976 81.4366 89.3355C78.1608 83.4734 76.5229 77.2666 76.5229 70.7148C76.5229 62.6114 79.0228 55.8873 84.0229 50.5424C89.1953 45.0252 95.7469 42.2666 103.678 42.2666C112.299 42.2666 119.885 46.1458 126.437 53.9045C132.988 61.4907 136.264 71.7493 136.264 84.6804C136.264 84.6804 136.264 84.6803 136.264 84.6803Z" stroke="none"/>
             </g>
            </g>
           </g>
          </g>
         </g>
        </g>
       </g>
      </g>
     </g>
    </g>
   </g>
  </g>
 </g>
 <g transform="translate(78.4477 0)">
  <g transform="translate(0 86.0652)">
   <g transform="translate(0 0)">
    <g transform="translate(0 0)">
     <g transform="rotate(0)">
      <g transform="scale(0.935 0.935)">
       <g transform="skewX(0) skewY(0)">
        <g opacity="1" transform="translate(-78.4477 0)">
         <g transform="translate(0 -86.0652)">
          <path stroke-width="30" fill="none" d="M0 0" stroke="#ffffff"/>
         </g>
        </g>
       </g>
      </g>
     </g>
    </g>
   </g>
  </g>
 </g>
 <g transform="translate(253.081 155.935)">
  <g transform="translate(0 0)">
   <g transform="rotate(0)">
    <g transform="scale(1 1)">
     <g transform="skewX(0) skewY(0)">
      <g opacity="1" transform="translate(-253.081 -155.935)">
       <path stroke-width="1" fill="none" d="M253.081 155.935C-nan(ind) -nan(ind) -nan(ind) -nan(ind) 253.081 155.935Z" stroke="#000000"/>
      </g>
     </g>
    </g>
   </g>
  </g>
 </g>
 <defs/>
</svg>
